<?xml version="1.0" encoding="UTF-8"?>
<!DOCTYPE svg PUBLIC "-//W3C//DTD SVG 1.1//EN" "http://www.w3.org/Graphics/SVG/1.1/DTD/svg11.dtd">
<svg xmlns="http://www.w3.org/2000/svg" xmlns:xlink="http://www.w3.org/1999/xlink" version="1.1" width="356px" height="56px" viewBox="-0.5 -0.5 356 56"><defs><clipPath id="mx-clip-219-31-132-26-0"><rect x="219" y="31" width="132" height="26"/></clipPath><clipPath id="mx-clip-4-31-132-26-0"><rect x="4" y="31" width="132" height="26"/></clipPath></defs><g><path d="M 215 26 L 215 0 L 355 0 L 355 26" fill="#ffffff" stroke="#000000" stroke-miterlimit="10" pointer-events="all"/><path d="M 215 26 L 215 52 L 355 52 L 355 26" fill="#ffffff" stroke="#000000" stroke-miterlimit="10" pointer-events="all"/><path d="M 215 26 L 355 26" fill="none" stroke="#000000" stroke-miterlimit="10" pointer-events="all"/><g fill="#000000" font-family="Helvetica" font-weight="bold" text-anchor="middle" font-size="12px"><text x="284.5" y="17.07">VolatileService</text></g><rect x="215" y="26" width="140" height="26" fill="none" stroke="none" pointer-events="all"/><g fill="#000000" font-family="Helvetica" font-style="italic" clip-path="url(#mx-clip-219-31-132-26-0)" font-size="12px"><text x="220.5" y="43.5">&lt;&lt;client methods&gt;&gt;</text></g><path d="M 140.29 25.86 L 208.77 25.86" fill="none" stroke="#000000" stroke-miterlimit="10" pointer-events="stroke"/><path d="M 214.02 25.86 L 207.02 29.36 L 208.77 25.86 L 207.02 22.36 Z" fill="#000000" stroke="#000000" stroke-miterlimit="10" pointer-events="all"/><path d="M 0 26 L 0 0 L 140 0 L 140 26" fill="#ffffff" stroke="#000000" stroke-miterlimit="10" pointer-events="all"/><path d="M 0 26 L 0 52 L 140 52 L 140 26" fill="#ffffff" stroke="#000000" stroke-miterlimit="10" pointer-events="all"/><path d="M 0 26 L 140 26" fill="none" stroke="#000000" stroke-miterlimit="10" pointer-events="all"/><g fill="#000000" font-family="Helvetica" font-weight="bold" text-anchor="middle" font-size="12px"><text x="69.5" y="17.07">Client</text></g><rect x="0" y="26" width="140" height="26" fill="none" stroke="none" pointer-events="all"/><g fill="#000000" font-family="Helvetica" font-style="italic" clip-path="url(#mx-clip-4-31-132-26-0)" font-size="12px"><text x="5.5" y="43.5">&lt;&lt;some methods&gt;&gt;</text></g></g></svg>